<svg width="32" height="32" viewBox="0 0 32 32" fill="none" xmlns="http://www.w3.org/2000/svg">
<path d="M21.334 5.33317H24.0006C24.7079 5.33317 25.3862 5.61412 25.8863 6.11422C26.3864 6.61432 26.6673 7.29259 26.6673 7.99984V26.6665C26.6673 27.3738 26.3864 28.052 25.8863 28.5521C25.3862 29.0522 24.7079 29.3332 24.0006 29.3332H8.00065C7.29341 29.3332 6.61513 29.0522 6.11503 28.5521C5.61494 28.052 5.33398 27.3738 5.33398 26.6665V7.99984C5.33398 7.29259 5.61494 6.61432 6.11503 6.11422C6.61513 5.61412 7.29341 5.33317 8.00065 5.33317H10.6673M16.0007 14.6665H21.334M16.0007 21.3332H21.334M10.6673 14.6665H10.6807M10.6673 21.3332H10.6807M12.0007 2.6665H20.0007C20.737 2.6665 21.334 3.26346 21.334 3.99984V6.6665C21.334 7.40288 20.737 7.99984 20.0007 7.99984H12.0007C11.2643 7.99984 10.6673 7.40288 10.6673 6.6665V3.99984C10.6673 3.26346 11.2643 2.6665 12.0007 2.6665Z" stroke="#5473C1" stroke-width="3" stroke-linecap="round" stroke-linejoin="round"/>
</svg>
