<svg width="12" height="12" viewBox="0 0 12 12" fill="none" xmlns="http://www.w3.org/2000/svg">
<g clip-path="url(#clip0_5733_7844)">
<path d="M5.5 1.99816H2C1.73478 1.99816 1.48043 2.10352 1.29289 2.29105C1.10536 2.47859 1 2.73294 1 2.99816V9.99816C1 10.2634 1.10536 10.5177 1.29289 10.7053C1.48043 10.8928 1.73478 10.9982 2 10.9982H9C9.26522 10.9982 9.51957 10.8928 9.70711 10.7053C9.89464 10.5177 10 10.2634 10 9.99816V6.49816M9.25 1.24816C9.44891 1.04925 9.7187 0.9375 10 0.9375C10.2813 0.9375 10.5511 1.04925 10.75 1.24816C10.9489 1.44707 11.0607 1.71686 11.0607 1.99816C11.0607 2.27946 10.9489 2.54925 10.75 2.74816L6 7.49816L4 7.99816L4.5 5.99816L9.25 1.24816Z" stroke="white" stroke-linecap="round" stroke-linejoin="round"/>
</g>
<defs>
<clipPath id="clip0_5733_7844">
<rect width="12" height="12" fill="white"/>
</clipPath>
</defs>
</svg>
