<svg width="20" height="21" viewBox="0 0 20 21" fill="none" xmlns="http://www.w3.org/2000/svg">
<path d="M11.6668 2.16797V7.16797H16.6668M16.6668 14.668L15.7585 13.7596C15.4462 13.4492 15.0238 13.275 14.5835 13.275C14.1432 13.275 13.7208 13.4492 13.4085 13.7596L8.3335 18.8346M12.0835 2.16797H5.00016C4.55814 2.16797 4.13421 2.34356 3.82165 2.65612C3.50909 2.96868 3.3335 3.39261 3.3335 3.83464V17.168C3.3335 17.61 3.50909 18.0339 3.82165 18.3465C4.13421 18.659 4.55814 18.8346 5.00016 18.8346H15.0002C15.4422 18.8346 15.8661 18.659 16.1787 18.3465C16.4912 18.0339 16.6668 17.61 16.6668 17.168V6.7513L12.0835 2.16797ZM10.0002 11.3346C10.0002 12.2551 9.25397 13.0013 8.3335 13.0013C7.41302 13.0013 6.66683 12.2551 6.66683 11.3346C6.66683 10.4142 7.41302 9.66797 8.3335 9.66797C9.25397 9.66797 10.0002 10.4142 10.0002 11.3346Z" stroke="#F6F6F6" stroke-width="2" stroke-linecap="round" stroke-linejoin="round"/>
</svg>
