<svg width="25" height="24" viewBox="0 0 25 24" fill="none" xmlns="http://www.w3.org/2000/svg">
<path d="M22.75 12H2.75M22.75 12V18C22.75 18.5304 22.5393 19.0391 22.1642 19.4142C21.7891 19.7893 21.2804 20 20.75 20H4.75C4.21957 20 3.71086 19.7893 3.33579 19.4142C2.96071 19.0391 2.75 18.5304 2.75 18V12M22.75 12L19.3 5.11C19.1344 4.77679 18.8792 4.49637 18.563 4.30028C18.2467 4.10419 17.8821 4.0002 17.51 4H7.99C7.61792 4.0002 7.25326 4.10419 6.93705 4.30028C6.62083 4.49637 6.36558 4.77679 6.2 5.11L2.75 12M6.75 16H6.76M10.75 16H10.76" stroke="#85C5FF" stroke-width="2" stroke-linecap="round" stroke-linejoin="round"/>
</svg>
