<svg width="16" height="17" viewBox="0 0 16 17" fill="none" xmlns="http://www.w3.org/2000/svg">
<path d="M6.00065 11.8332H4.66732C3.78326 11.8332 2.93542 11.482 2.3103 10.8569C1.68517 10.2317 1.33398 9.38389 1.33398 8.49984C1.33398 7.61578 1.68517 6.76794 2.3103 6.14281C2.93542 5.51769 3.78326 5.1665 4.66732 5.1665H6.00065M10.0007 5.1665H11.334C12.218 5.1665 13.0659 5.51769 13.691 6.14281C14.3161 6.76794 14.6673 7.61578 14.6673 8.49984C14.6673 9.38389 14.3161 10.2317 13.691 10.8569C13.0659 11.482 12.218 11.8332 11.334 11.8332H10.0007M5.33398 8.49984H10.6673" stroke="#F6F6F6" stroke-width="1.5" stroke-linecap="round" stroke-linejoin="round"/>
</svg>
