<svg width="20" height="20" viewBox="0 0 20 20" fill="none" xmlns="http://www.w3.org/2000/svg">
<g opacity="0.5">
<path d="M7.49935 14.1668H5.83268C4.72761 14.1668 3.66781 13.7278 2.8864 12.9464C2.105 12.165 1.66602 11.1052 1.66602 10.0002C1.66602 8.89509 2.105 7.83529 2.8864 7.05388C3.66781 6.27248 4.72761 5.8335 5.83268 5.8335H7.49935M12.4994 5.8335H14.166C15.2711 5.8335 16.3309 6.27248 17.1123 7.05388C17.8937 7.83529 18.3327 8.89509 18.3327 10.0002C18.3327 11.1052 17.8937 12.165 17.1123 12.9464C16.3309 13.7278 15.2711 14.1668 14.166 14.1668H12.4994M6.66602 10.0002H13.3327" stroke="white" stroke-width="2" stroke-linecap="round" stroke-linejoin="round"/>
</g>
</svg>
