<svg width="20" height="20" viewBox="0 0 20 20" fill="none" xmlns="http://www.w3.org/2000/svg">
<g opacity="0.5">
<path d="M16.6673 8.33317C16.6673 13.3332 10.0007 18.3332 10.0007 18.3332C10.0007 18.3332 3.33398 13.3332 3.33398 8.33317C3.33398 6.56506 4.03636 4.86937 5.28661 3.61913C6.53685 2.36888 8.23254 1.6665 10.0007 1.6665C11.7688 1.6665 13.4645 2.36888 14.7147 3.61913C15.9649 4.86937 16.6673 6.56506 16.6673 8.33317Z" stroke="white" stroke-width="2" stroke-linecap="round" stroke-linejoin="round"/>
<path d="M10.0007 10.8332C11.3814 10.8332 12.5007 9.71388 12.5007 8.33317C12.5007 6.95246 11.3814 5.83317 10.0007 5.83317C8.61994 5.83317 7.50065 6.95246 7.50065 8.33317C7.50065 9.71388 8.61994 10.8332 10.0007 10.8332Z" stroke="white" stroke-width="2" stroke-linecap="round" stroke-linejoin="round"/>
</g>
</svg>
