<svg width="25" height="24" viewBox="0 0 25 24" fill="none" xmlns="http://www.w3.org/2000/svg">
<path d="M7.75 4.27185L16.75 9.42185M3.5498 7.00183L12.2498 12.0018M12.2498 12.0018L20.9498 7.00183M12.2498 12.0018L12.25 22.0018M21.25 8.00185C21.2496 7.65113 21.1571 7.30666 20.9815 7.00302C20.806 6.69937 20.5537 6.44722 20.25 6.27185L13.25 2.27186C12.946 2.09632 12.6011 2.00391 12.25 2.00391C11.8989 2.00391 11.554 2.09632 11.25 2.27186L4.25 6.27185C3.94626 6.44722 3.69398 6.69937 3.51846 7.00302C3.34294 7.30666 3.25036 7.65113 3.25 8.00185V16.0019C3.25036 16.3526 3.34294 16.697 3.51846 17.0007C3.69398 17.3043 3.94626 17.5565 4.25 17.7319L11.25 21.7319C11.554 21.9074 11.8989 21.9998 12.25 21.9998C12.6011 21.9998 12.946 21.9074 13.25 21.7319L20.25 17.7319C20.5537 17.5565 20.806 17.3043 20.9815 17.0007C21.1571 16.697 21.2496 16.3526 21.25 16.0019V8.00185Z" stroke="#85C5FF" stroke-width="2" stroke-linecap="round" stroke-linejoin="round"/>
</svg>
