<svg width="32" height="32" viewBox="0 0 32 32" fill="none" xmlns="http://www.w3.org/2000/svg">
<path d="M15.9993 22.6665V29.3332M6.66602 22.6665H25.3327V20.3198C25.3324 19.8237 25.1938 19.3375 24.9323 18.9159C24.6709 18.4943 24.297 18.1539 23.8527 17.9332L21.4793 16.7332C21.0351 16.5124 20.6612 16.1721 20.3997 15.7504C20.1383 15.3288 19.9996 14.8426 19.9993 14.3465V7.99984H21.3327C22.0399 7.99984 22.7182 7.71889 23.2183 7.21879C23.7184 6.71869 23.9993 6.04041 23.9993 5.33317C23.9993 4.62593 23.7184 3.94765 23.2183 3.44755C22.7182 2.94746 22.0399 2.6665 21.3327 2.6665H10.666C9.95877 2.6665 9.28049 2.94746 8.7804 3.44755C8.2803 3.94765 7.99935 4.62593 7.99935 5.33317C7.99935 6.04041 8.2803 6.71869 8.7804 7.21879C9.28049 7.71889 9.95877 7.99984 10.666 7.99984H11.9993V14.3465C11.9991 14.8426 11.8604 15.3288 11.599 15.7504C11.3375 16.1721 10.9636 16.5124 10.5193 16.7332L8.14602 17.9332C7.70173 18.1539 7.32784 18.4943 7.06639 18.9159C6.80493 19.3375 6.66628 19.8237 6.66602 20.3198V22.6665Z" stroke="#5473C1" stroke-width="3" stroke-linecap="round" stroke-linejoin="round"/>
</svg>
