<svg width="14" height="14" viewBox="0 0 14 14" fill="none" xmlns="http://www.w3.org/2000/svg">
<path d="M9.47487 4.97833C9.67014 4.78307 9.67014 4.46648 9.47487 4.27122C9.27961 4.07596 8.96303 4.07596 8.76777 4.27122L9.12132 4.62477L9.47487 4.97833ZM4.52513 8.51386C4.32986 8.70912 4.32986 9.02571 4.52513 9.22097C4.72039 9.41623 5.03697 9.41623 5.23223 9.22097L4.87868 8.86741L4.52513 8.51386ZM8.76777 9.22097C8.96303 9.41623 9.27961 9.41623 9.47487 9.22097C9.67014 9.02571 9.67014 8.70912 9.47487 8.51386L9.12132 8.86741L8.76777 9.22097ZM5.23223 4.27122C5.03697 4.07596 4.72039 4.07596 4.52513 4.27122C4.32986 4.46648 4.32986 4.78306 4.52513 4.97833L4.87868 4.62477L5.23223 4.27122ZM13 6.74609H12.5C12.5 9.78366 10.0376 12.2461 7 12.2461V12.7461V13.2461C10.5899 13.2461 13.5 10.3359 13.5 6.74609H13ZM7 12.7461V12.2461C3.96243 12.2461 1.5 9.78366 1.5 6.74609H1H0.5C0.5 10.3359 3.41015 13.2461 7 13.2461V12.7461ZM1 6.74609H1.5C1.5 3.70853 3.96243 1.24609 7 1.24609V0.746094V0.246094C3.41015 0.246094 0.5 3.15624 0.5 6.74609H1ZM7 0.746094V1.24609C10.0376 1.24609 12.5 3.70853 12.5 6.74609H13H13.5C13.5 3.15624 10.5899 0.246094 7 0.246094V0.746094ZM9.12132 4.62477L8.76777 4.27122L6.64645 6.39254L7 6.74609L7.35355 7.09965L9.47487 4.97833L9.12132 4.62477ZM7 6.74609L6.64645 6.39254L4.52513 8.51386L4.87868 8.86741L5.23223 9.22097L7.35355 7.09965L7 6.74609ZM9.12132 8.86741L9.47487 8.51386L7.35355 6.39254L7 6.74609L6.64645 7.09965L8.76777 9.22097L9.12132 8.86741ZM7 6.74609L7.35355 6.39254L5.23223 4.27122L4.87868 4.62477L4.52513 4.97833L6.64645 7.09965L7 6.74609Z" fill="#AA3A39"/>
</svg>
