<svg width="32" height="32" viewBox="0 0 32 32" fill="none" xmlns="http://www.w3.org/2000/svg">
<path d="M18.666 25.3332C18.666 23.2114 17.8232 21.1766 16.3229 19.6763C14.8226 18.176 12.7877 17.3332 10.666 17.3332M10.666 17.3332C8.54428 17.3332 6.50945 18.176 5.00916 19.6763C3.50887 21.1766 2.66602 23.2114 2.66602 25.3332M10.666 17.3332C13.6115 17.3332 15.9994 14.9454 15.9994 11.9998C15.9994 9.05432 13.6115 6.6665 10.666 6.6665C7.7205 6.6665 5.33268 9.05432 5.33268 11.9998C5.33268 14.9454 7.7205 17.3332 10.666 17.3332ZM29.3327 25.3332C29.3327 23.2114 28.4898 21.1766 26.9895 19.6763C25.4892 18.176 23.4544 17.3332 21.3327 17.3332C22.7472 17.3332 24.1037 16.7713 25.1039 15.7711C26.1041 14.7709 26.666 13.4143 26.666 11.9998C26.666 10.5853 26.1041 9.22879 25.1039 8.2286C24.1037 7.22841 22.7472 6.6665 21.3327 6.6665" stroke="#5473C1" stroke-width="3" stroke-linecap="round" stroke-linejoin="round"/>
</svg>
