<svg width="4" height="19" viewBox="0 0 4 19" fill="none" xmlns="http://www.w3.org/2000/svg">
<path d="M2 10.293C2.55228 10.293 3 9.84525 3 9.29297C3 8.74068 2.55228 8.29297 2 8.29297C1.44772 8.29297 1 8.74068 1 9.29297C1 9.84525 1.44772 10.293 2 10.293Z" stroke="white" stroke-width="2" stroke-linecap="round" stroke-linejoin="round"/>
<path d="M2 3.29297C2.55228 3.29297 3 2.84525 3 2.29297C3 1.74068 2.55228 1.29297 2 1.29297C1.44772 1.29297 1 1.74068 1 2.29297C1 2.84525 1.44772 3.29297 2 3.29297Z" stroke="white" stroke-width="2" stroke-linecap="round" stroke-linejoin="round"/>
<path d="M2 17.293C2.55228 17.293 3 16.8453 3 16.293C3 15.7407 2.55228 15.293 2 15.293C1.44772 15.293 1 15.7407 1 16.293C1 16.8453 1.44772 17.293 2 17.293Z" stroke="white" stroke-width="2" stroke-linecap="round" stroke-linejoin="round"/>
</svg>
