<svg width="32" height="32" viewBox="0 0 32 32" fill="none" xmlns="http://www.w3.org/2000/svg">
<path d="M19.5998 8.39981C19.3555 8.64905 19.2187 8.98414 19.2187 9.33314C19.2187 9.68215 19.3555 10.0172 19.5998 10.2665L21.7331 12.3998C21.9824 12.6441 22.3175 12.781 22.6665 12.781C23.0155 12.781 23.3506 12.6441 23.5998 12.3998L28.6265 7.37314C29.2969 8.85473 29.4999 10.5055 29.2084 12.1053C28.9169 13.7052 28.1448 15.1783 26.9948 16.3282C25.8449 17.4781 24.3719 18.2503 22.772 18.5418C21.1721 18.8333 19.5214 18.6303 18.0398 17.9598L8.82647 27.1731C8.29604 27.7036 7.57662 28.0016 6.82647 28.0016C6.07633 28.0016 5.35691 27.7036 4.82647 27.1731C4.29604 26.6427 3.99805 25.9233 3.99805 25.1731C3.99805 24.423 4.29604 23.7036 4.82647 23.1731L14.0398 13.9598C13.3694 12.4782 13.1664 10.8275 13.4579 9.22762C13.7494 7.62773 14.5215 6.15468 15.6714 5.00477C16.8213 3.85486 18.2944 3.0827 19.8943 2.7912C21.4942 2.4997 23.1449 2.7027 24.6265 3.37314L19.6131 8.38648L19.5998 8.39981Z" stroke="#5473C1" stroke-width="3" stroke-linecap="round" stroke-linejoin="round"/>
</svg>
