<svg width="19" height="19" viewBox="0 0 19 19" fill="none" xmlns="http://www.w3.org/2000/svg">
<path d="M12.7257 7.57595C12.9636 7.33804 12.9636 6.95233 12.7257 6.71442C12.4878 6.47652 12.1021 6.47652 11.8642 6.71442L12.295 7.14519L12.7257 7.57595ZM7.01813 11.5605C6.78023 11.7984 6.78023 12.1841 7.01813 12.422C7.25604 12.6599 7.64175 12.6599 7.87966 12.422L7.4489 11.9913L7.01813 11.5605ZM11.8642 12.422C12.1021 12.6599 12.4878 12.6599 12.7257 12.422C12.9636 12.1841 12.9636 11.7984 12.7257 11.5605L12.295 11.9913L11.8642 12.422ZM7.87966 6.71442C7.64175 6.47652 7.25604 6.47652 7.01813 6.71442C6.78023 6.95233 6.78023 7.33804 7.01813 7.57595L7.4489 7.14518L7.87966 6.71442ZM16.7253 9.56822H16.1161C16.1161 13.0168 13.3205 15.8124 9.87193 15.8124V16.4216V17.0308C13.9934 17.0308 17.3345 13.6897 17.3345 9.56822H16.7253ZM9.87193 16.4216V15.8124C6.42336 15.8124 3.62774 13.0168 3.62774 9.56822H3.01855H2.40937C2.40937 13.6897 5.75047 17.0308 9.87193 17.0308V16.4216ZM3.01855 9.56822H3.62774C3.62774 6.11965 6.42336 3.32403 9.87193 3.32403V2.71484V2.10565C5.75047 2.10565 2.40937 5.44676 2.40937 9.56822H3.01855ZM9.87193 2.71484V3.32403C13.3205 3.32403 16.1161 6.11965 16.1161 9.56822H16.7253H17.3345C17.3345 5.44676 13.9934 2.10565 9.87193 2.10565V2.71484ZM12.295 7.14519L11.8642 6.71442L9.44117 9.13746L9.87193 9.56822L10.3027 9.99898L12.7257 7.57595L12.295 7.14519ZM9.87193 9.56822L9.44117 9.13746L7.01813 11.5605L7.4489 11.9913L7.87966 12.422L10.3027 9.99898L9.87193 9.56822ZM12.295 11.9913L12.7257 11.5605L10.3027 9.13746L9.87193 9.56822L9.44117 9.99898L11.8642 12.422L12.295 11.9913ZM9.87193 9.56822L10.3027 9.13746L7.87966 6.71442L7.4489 7.14518L7.01813 7.57595L9.44117 9.99898L9.87193 9.56822Z" fill="#AA3A39"/>
</svg>
